simulation
nRows=55
nColumns=15
endheader
time  TH_x TH_y TH_z SC_y  SC_z  SC_x  AC_y  AC_z  AC_x  GH_y  GH_z  GH_yy  EL_x  PS_y
0.250021  0.000000  0.000000  0.000000  -19.820899  6.553100  -20.000000  59.927968  42.224317  -0.747298  -1.486696  55.483944  -2.584678  24.191820  112.511321
0.250105  0.000000  0.000000  0.000000  -19.820899  6.553100  -15.000000  61.969432  37.852043  -3.917949  -1.486696  55.483944  -2.584678  24.191820  112.511321
0.250188  0.000000  0.000000  0.000000  -19.820899  6.553100  -10.000000  63.609077  33.404346  -6.730188  -1.486696  55.483944  -2.584678  24.191820  112.511321
0.250272  0.000000  0.000000  0.000000  -19.820899  6.553100  -5.000000  64.922250  28.899432  -9.266400  -1.486696  55.483944  -2.584678  24.191820  112.511321
0.250356  0.000000  0.000000  0.000000  -19.820899  6.553100  0.000000  65.964633  24.350984  -11.590265  -1.486696  55.483944  -2.584678  24.191820  112.511321
0.250440  0.000000  0.000000  0.000000  -19.820899  6.553100  5.000000  66.777305  19.769602  -13.752082  -1.486696  55.483944  -2.584678  24.191820  112.511321
0.250523  0.000000  0.000000  0.000000  -19.820899  6.553100  10.000000  67.390314  15.163716  -15.792573  -1.486696  55.483944  -2.584678  24.191820  112.511321
0.250607  0.000000  0.000000  0.000000  -19.820899  6.553100  15.000000  67.825157  10.540270  -17.745725  -1.486696  55.483944  -2.584678  24.191820  112.511321
0.250691  0.000000  0.000000  0.000000  -19.820899  6.553100  20.000000  68.096451  5.905206  -19.640896  -1.486696  55.483944  -2.584678  24.191820  112.511321
0.250775  0.000000  0.000000  0.000000  -19.820899  6.553100  25.000000  68.213073  1.263834  -21.504538  -1.486696  55.483944  -2.584678  24.191820  112.511321
0.250859  0.000000  0.000000  0.000000  -19.820899  6.553100  30.000000  68.178771  -3.378880  -23.361519  -1.486696  55.483944  -2.584678  24.191820  112.511321
0.250942  0.000000  0.000000  0.000000  -19.820899  6.553100  35.000000  67.992439  -8.017995  -25.236384  -1.486696  55.483944  -2.584678  24.191820  112.511321
0.251026  0.000000  0.000000  0.000000  -19.820899  6.553100  40.000000  67.648062  -12.648457  -27.154544  -1.486696  55.483944  -2.584678  24.191820  112.511321
0.251110  0.000000  0.000000  0.000000  -19.820899  6.553100  45.000000  67.134246  -17.264690  -29.143605  -1.486696  55.483944  -2.584678  24.191820  112.511321
0.251194  0.000000  0.000000  0.000000  -19.820899  6.553100  50.000000  66.433405  -21.860349  -31.234807  -1.486696  55.483944  -2.584678  24.191820  112.511321
0.251277  0.000000  0.000000  0.000000  -4.856369  1.648724  -20.000000  64.416829  16.075154  9.960038  5.992796  47.170951  15.843469  12.192034  112.269586
0.251361  0.000000  0.000000  0.000000  -4.856369  1.648724  -15.000000  64.942995  11.554918  7.758525  5.992796  47.170951  15.843469  12.192034  112.269586
0.251445  0.000000  0.000000  0.000000  -4.856369  1.648724  -10.000000  65.287255  7.018612  5.627154  5.992796  47.170951  15.843469  12.192034  112.269586
0.251529  0.000000  0.000000  0.000000  -4.856369  1.648724  -5.000000  65.460333  2.472879  3.537050  5.992796  47.170951  15.843469  12.192034  112.269586
0.251612  0.000000  0.000000  0.000000  -4.856369  1.648724  0.000000  65.467523  -2.076119  1.461253  5.992796  47.170951  15.843469  12.192034  112.269586
0.251696  0.000000  0.000000  0.000000  -4.856369  1.648724  5.000000  65.309056  -6.622377  -0.626547  5.992796  47.170951  15.843469  12.192034  112.269586
0.251780  0.000000  0.000000  0.000000  -4.856369  1.648724  10.000000  64.980082  -11.159765  -2.753200  5.992796  47.170951  15.843469  12.192034  112.269586
0.251864  0.000000  0.000000  0.000000  -4.856369  1.648724  15.000000  64.470346  -15.681680  -4.947377  5.992796  47.170951  15.843469  12.192034  112.269586
0.251947  0.000000  0.000000  0.000000  -4.856369  1.648724  20.000000  63.763600  -20.180748  -7.240911  5.992796  47.170951  15.843469  12.192034  112.269586
0.252031  0.000000  0.000000  0.000000  -4.856369  1.648724  25.000000  62.836354  -24.648321  -9.670522  5.992796  47.170951  15.843469  12.192034  112.269586
0.252115  0.000000  0.000000  0.000000  -4.856369  1.648724  30.000000  61.656326  -29.073953  -12.279878  5.992796  47.170951  15.843469  12.192034  112.269586
0.252199  0.000000  0.000000  0.000000  -4.856369  1.648724  35.000000  60.180076  -33.444600  -15.122283  5.992796  47.170951  15.843469  12.192034  112.269586
0.252282  0.000000  0.000000  0.000000  -4.856369  1.648724  40.000000  58.349795  -37.743552  -18.264154  5.992796  47.170951  15.843469  12.192034  112.269586
0.252366  0.000000  0.000000  0.000000  -4.856369  1.648724  45.000000  56.089020  -41.948907  -21.789562  5.992796  47.170951  15.843469  12.192034  112.269586
0.252450  0.000000  0.000000  0.000000  -4.856369  1.648724  50.000000  53.297304  -46.031330  -25.805706  5.992796  47.170951  15.843469  12.192034  112.269586
0.252534  0.000000  0.000000  0.000000  -11.522581  0.552879  -20.000000  53.598469  19.090125  8.761249  -12.739658  32.267862  -10.880112  22.287920  124.562671
0.252617  0.000000  0.000000  0.000000  -11.522581  0.552879  -15.000000  54.500195  15.041498  5.691209  -12.739658  32.267862  -10.880112  22.287920  124.562671
0.252701  0.000000  0.000000  0.000000  -11.522581  0.552879  -10.000000  55.165341  10.953197  2.736275  -12.739658  32.267862  -10.880112  22.287920  124.562671
0.252785  0.000000  0.000000  0.000000  -11.522581  0.552879  -5.000000  55.610129  6.837249  -0.137787  -12.739658  32.267862  -10.880112  22.287920  124.562671
0.252869  0.000000  0.000000  0.000000  -11.522581  0.552879  0.000000  55.845273  2.704556  -2.962600  -12.739658  32.267862  -10.880112  22.287920  124.562671
0.252953  0.000000  0.000000  0.000000  -11.522581  0.552879  5.000000  55.876391  -1.434655  -5.768186  -12.739658  32.267862  -10.880112  22.287920  124.562671
0.253036  0.000000  0.000000  0.000000  -11.522581  0.552879  10.000000  55.704209  -5.570426  -8.583948  -12.739658  32.267862  -10.880112  22.287920  124.562671
0.253120  0.000000  0.000000  0.000000  -11.522581  0.552879  15.000000  55.324655  -9.692619  -11.439643  -12.739658  32.267862  -10.880112  22.287920  124.562671
0.253204  0.000000  0.000000  0.000000  -11.522581  0.552879  20.000000  54.728587  -13.790622  -14.366250  -12.739658  32.267862  -10.880112  22.287920  124.562671
0.253288  0.000000  0.000000  0.000000  -11.522581  0.552879  25.000000  53.901540  -17.852792  -17.397132  -12.739658  32.267862  -10.880112  22.287920  124.562671
0.253371  0.000000  0.000000  0.000000  -11.522581  0.552879  30.000000  52.823123  -21.866007  -20.568960  -12.739658  32.267862  -10.880112  22.287920  124.562671
0.253455  0.000000  0.000000  0.000000  -11.522581  0.552879  35.000000  51.466338  -25.815042  -23.922953  -12.739658  32.267862  -10.880112  22.287920  124.562671
0.253539  0.000000  0.000000  0.000000  -11.522581  0.552879  40.000000  49.796708  -29.681850  -27.506045  -12.739658  32.267862  -10.880112  22.287920  124.562671
0.253623  0.000000  0.000000  0.000000  -11.522581  0.552879  45.000000  47.771439  -33.444636  -31.372039  -12.739658  32.267862  -10.880112  22.287920  124.562671
0.253706  0.000000  0.000000  0.000000  -11.522581  0.552879  50.000000  45.338823  -37.076722  -35.582472  -12.739658  32.267862  -10.880112  22.287920  124.562671
0.253790  0.000000  0.000000  0.000000  -5.629555  2.999927  -20.000000  60.337603  43.080980  -4.911021  -20.506233  46.450313  3.262036  9.283550  121.538721
0.253874  0.000000  0.000000  0.000000  -5.629555  2.999927  -15.000000  62.412906  38.690753  -8.078813  -20.506233  46.450313  3.262036  9.283550  121.538721
0.253958  0.000000  0.000000  0.000000  -5.629555  2.999927  -10.000000  64.077041  34.224999  -10.876787  -20.506233  46.450313  3.262036  9.283550  121.538721
0.254041  0.000000  0.000000  0.000000  -5.629555  2.999927  -5.000000  65.409120  29.702159  -13.390844  -20.506233  46.450313  3.262036  9.283550  121.538721
0.254125  0.000000  0.000000  0.000000  -5.629555  2.999927  0.000000  66.467381  25.135944  -15.686864  -20.506233  46.450313  3.262036  9.283550  121.538721
0.254209  0.000000  0.000000  0.000000  -5.629555  2.999927  5.000000  67.294648  20.536920  -17.816502  -20.506233  46.450313  3.262036  9.283550  121.538721
0.254293  0.000000  0.000000  0.000000  -5.629555  2.999927  10.000000  67.922193  15.913412  -19.821225  -20.506233  46.450313  3.262036  9.283550  121.538721
0.254376  0.000000  0.000000  0.000000  -5.629555  2.999927  15.000000  68.372487  11.272248  -21.735450  -20.506233  46.450313  3.262036  9.283550  121.538721
0.254460  0.000000  0.000000  0.000000  -5.629555  2.999927  20.000000  68.660914  6.619216  -23.588635  -20.506233  46.450313  3.262036  9.283550  121.538721
0.254544  0.000000  0.000000  0.000000  -5.629555  2.999927  25.000000  68.797042  1.959446  -25.407128  -20.506233  46.450313  3.262036  9.283550  121.538721
